<?xml version="1.0" encoding="utf-8"?>
<!-- created with bpmn-js / http://bpmn.io -->
<!DOCTYPE svg PUBLIC "-//W3C//DTD SVG 1.1//EN" "http://www.w3.org/Graphics/SVG/1.1/DTD/svg11.dtd">
<svg xmlns="http://www.w3.org/2000/svg" xmlns:xlink="http://www.w3.org/1999/xlink" width="536.2614135742188" height="972" viewBox="154 84 536.2614135742188 972" version="1.1"><defs><marker id="sequenceflow-end-white-black-9qq1vjedz0grerzq6aoqidt8r" viewBox="0 0 20 20" refX="11" refY="10" markerWidth="10" markerHeight="10" orient="auto"><path d="M 1 5 L 11 10 L 1 15 Z" style="fill: black; stroke-width: 1px; stroke-linecap: round; stroke-dasharray: 10000, 1; stroke: black;"/></marker></defs><g class="djs-group"><g class="djs-element djs-shape" data-element-id="TextAnnotation_1j7ziuc" style="display: block;" transform="matrix(1 0 0 1 420 164)"><g class="djs-visual"><rect x="0" y="0" width="199.99679158110885" height="127.3100616016427" rx="0" ry="0" style="stroke: none; stroke-width: 2px; fill: none;"/><path d="m 0, 0 m 10,0 l -10,0 l 0,127.3100616016427 l 10,0" style="fill: none; stroke-width: 2px; stroke: black;"/><text lineHeight="1.2" class="djs-label" style="font-family: Arial, sans-serif; font-size: 12px; font-weight: normal; fill: black;"><tspan x="5" y="15.799999999999999">Not available</tspan><tspan x="5" y="30.199999999999996">Table 5: Not matched countries of </tspan><tspan x="5" y="44.599999999999994">Deaths w/ Consolidated Dataset </tspan><tspan x="5" y="58.99999999999999">(Rpubs):</tspan><tspan x="5" y="73.39999999999999"> - Diamond Princess</tspan><tspan x="5" y="87.79999999999998"> - Holy See</tspan><tspan x="5" y="102.19999999999999"> - MS Zaandam</tspan><tspan x="5" y="116.6"> - West Bank and Gaza</tspan></text></g><rect class="djs-hit djs-hit-all" x="0" y="0" width="199.99679158110885" height="127.3100616016427" style="fill: none; stroke-opacity: 0; stroke: white; stroke-width: 15px;"/><rect x="-6" y="-6" width="211.99679158110885" height="139.3100616016427" class="djs-outline" style="fill: none;"/></g></g><g class="djs-group"><g class="djs-element djs-shape" data-element-id="TextAnnotation_1d0qorx" style="display: block;" transform="matrix(1 0 0 1 420 300)"><g class="djs-visual"><rect x="0" y="0" width="260" height="510" rx="0" ry="0" style="stroke: none; stroke-width: 2px; fill: none;"/><path d="m 0, 0 m 10,0 l -10,0 l 0,510 l 10,0" style="fill: none; stroke-width: 2px; stroke: black;"/><text lineHeight="1.2" class="djs-label" style="font-family: Arial, sans-serif; font-size: 12px; font-weight: normal; fill: black;"><tspan x="5" y="15.799999999999999">Table 41. Percentage of Missing data in the </tspan><tspan x="5" y="30.199999999999996">Different Time Points By Country (monthly </tspan><tspan x="5" y="44.599999999999994">Data) with &gt;1 point (Rpubs):</tspan><tspan x="5" y="58.99999999999999"> - Andorra</tspan><tspan x="5" y="73.39999999999999"> - Antigua and Barbuda</tspan><tspan x="5" y="87.79999999999998"> - Armenia</tspan><tspan x="5" y="102.19999999999999"> - Bahamas</tspan><tspan x="5" y="116.6"> - Comoros</tspan><tspan x="5" y="131"> - Cuba</tspan><tspan x="5" y="145.4"> - Dominica</tspan><tspan x="5" y="159.8"> - Equatorial Guinea</tspan><tspan x="5" y="174.20000000000002"> - Eritrea</tspan><tspan x="5" y="188.60000000000002"> - Grenada</tspan><tspan x="5" y="203.00000000000003"> - Guinea-Bissau</tspan><tspan x="5" y="217.40000000000003"> - Kosovo</tspan><tspan x="5" y="231.80000000000004"> - Liechtenstein</tspan><tspan x="5" y="246.20000000000005"> - Maldives</tspan><tspan x="5" y="260.6"> - Malta</tspan><tspan x="5" y="275"> - Marshall Islands</tspan><tspan x="5" y="289.4"> - Monaco</tspan><tspan x="5" y="303.79999999999995"> - Montenegro</tspan><tspan x="5" y="318.19999999999993"> - Namibia</tspan><tspan x="5" y="332.5999999999999"> - Macedonia</tspan><tspan x="5" y="346.9999999999999"> - Saint Kitts and Nevis</tspan><tspan x="5" y="361.39999999999986"> - Saint Lucia</tspan><tspan x="5" y="375.79999999999984"> - Saint Vincent and the Grenadines</tspan><tspan x="5" y="390.1999999999998"> - San Marino</tspan><tspan x="5" y="404.5999999999998"> - Sao Tome and Principe</tspan><tspan x="5" y="418.9999999999998"> - Serbia</tspan><tspan x="5" y="433.39999999999975"> - Somalia</tspan><tspan x="5" y="447.7999999999997"> - South Sudan</tspan><tspan x="5" y="462.1999999999997"> - Sudan</tspan><tspan x="5" y="476.5999999999997"> - Syria</tspan><tspan x="5" y="490.99999999999966"> - Taiwan</tspan><tspan x="5" y="505.39999999999964"> - Western Sahara</tspan></text></g><rect class="djs-hit djs-hit-all" x="0" y="0" width="260" height="510" style="fill: none; stroke-opacity: 0; stroke: white; stroke-width: 15px;"/><rect x="-6" y="-6" width="272" height="522" class="djs-outline" style="fill: none;"/></g></g><g class="djs-group"><g class="djs-element djs-shape" data-element-id="TextAnnotation_08lq6qn" style="display: block;" transform="matrix(1 0 0 1 420 815)"><g class="djs-visual"><rect x="0" y="0" width="264.2614219712526" height="30.800821355236142" rx="0" ry="0" style="stroke: none; stroke-width: 2px; fill: none;"/><path d="m 0, 0 m 10,0 l -10,0 l 0,30.800821355236142 l 10,0" style="fill: none; stroke-width: 2px; stroke: black;"/><text lineHeight="1.2" class="djs-label" style="font-family: Arial, sans-serif; font-size: 12px; font-weight: normal; fill: black;"><tspan x="5" y="15.799999999999999">Solomon Islands</tspan></text></g><rect class="djs-hit djs-hit-all" x="0" y="0" width="264.2614219712526" height="30.800821355236142" style="fill: none; stroke-opacity: 0; stroke: white; stroke-width: 15px;"/><rect x="-6" y="-6" width="276.2614219712526" height="42.80082135523614" class="djs-outline" style="fill: none;"/></g></g><g class="djs-group"><g class="djs-element djs-shape" data-element-id="TextAnnotation_0oj7frb" style="display: block;" transform="matrix(1 0 0 1 420 905)"><g class="djs-visual"><rect x="0" y="0" width="100" height="30" rx="0" ry="0" style="stroke: none; stroke-width: 2px; fill: none;"/><path d="m 0, 0 m 10,0 l -10,0 l 0,30 l 10,0" style="fill: none; stroke-width: 2px; stroke: black;"/><text lineHeight="1.2" class="djs-label" style="font-family: Arial, sans-serif; font-size: 12px; font-weight: normal; fill: black;"><tspan x="5" y="15.799999999999999">Qatar</tspan></text></g><rect class="djs-hit djs-hit-all" x="0" y="0" width="100" height="30" style="fill: none; stroke-opacity: 0; stroke: white; stroke-width: 15px;"/><rect x="-6" y="-6" width="112" height="42" class="djs-outline" style="fill: none;"/></g></g><g class="djs-group"><g class="djs-element djs-connection" data-element-id="Flow_0sxjf9z" style="display: block;"><g class="djs-visual"><path d="m  210,617L210,920 L280,920 " style="fill: none; stroke-width: 2px; stroke: black; stroke-linejoin: round; marker-end: url('#sequenceflow-end-white-black-9qq1vjedz0grerzq6aoqidt8r');"/></g><polyline points="210,617 210,920 280,920 " class="djs-hit djs-hit-stroke" style="fill: none; stroke-opacity: 0; stroke: white; stroke-width: 15px;"/><rect x="204" y="611" width="82" height="315" class="djs-outline" style="fill: none;"/></g></g><g class="djs-group"><g class="djs-element djs-connection" data-element-id="Flow_1henji8" style="display: block;"><g class="djs-visual"><path d="m  210,617L210,830 L280,830 " style="fill: none; stroke-width: 2px; stroke: black; stroke-linejoin: round; marker-end: url('#sequenceflow-end-white-black-9qq1vjedz0grerzq6aoqidt8r');"/></g><polyline points="210,617 210,830 280,830 " class="djs-hit djs-hit-stroke" style="fill: none; stroke-opacity: 0; stroke: white; stroke-width: 15px;"/><rect x="204" y="611" width="82" height="225" class="djs-outline" style="fill: none;"/></g></g><g class="djs-group"><g class="djs-element djs-connection" data-element-id="Flow_077vrrd" style="display: block;"><g class="djs-visual"><path d="m  210,617L210,970 " style="fill: none; stroke-width: 2px; stroke: black; stroke-linejoin: round; marker-end: url('#sequenceflow-end-white-black-9qq1vjedz0grerzq6aoqidt8r');"/></g><polyline points="210,617 210,970 " class="djs-hit djs-hit-stroke" style="fill: none; stroke-opacity: 0; stroke: white; stroke-width: 15px;"/><rect x="204" y="611" width="12" height="365" class="djs-outline" style="fill: none;"/></g></g><g class="djs-group"><g class="djs-element djs-connection" data-element-id="Flow_0alqjjr" style="display: block;"><g class="djs-visual"><path d="m  210,390L210,470 L280,470 " style="fill: none; stroke-width: 2px; stroke: black; stroke-linejoin: round; marker-end: url('#sequenceflow-end-white-black-9qq1vjedz0grerzq6aoqidt8r');"/></g><polyline points="210,390 210,470 280,470 " class="djs-hit djs-hit-stroke" style="fill: none; stroke-opacity: 0; stroke: white; stroke-width: 15px;"/><rect x="204" y="384" width="82" height="92" class="djs-outline" style="fill: none;"/></g></g><g class="djs-group"><g class="djs-element djs-connection" data-element-id="Flow_1jastr5" style="display: block;"><g class="djs-visual"><path d="m  210,390L210,537 " style="fill: none; stroke-width: 2px; stroke: black; stroke-linejoin: round; marker-end: url('#sequenceflow-end-white-black-9qq1vjedz0grerzq6aoqidt8r');"/></g><polyline points="210,390 210,537 " class="djs-hit djs-hit-stroke" style="fill: none; stroke-opacity: 0; stroke: white; stroke-width: 15px;"/><rect x="204" y="384" width="12" height="159" class="djs-outline" style="fill: none;"/></g></g><g class="djs-group"><g class="djs-element djs-connection" data-element-id="Flow_04xr85n" style="display: block;"><g class="djs-visual"><path d="m  210,170L210,240 L280,240 " style="fill: none; stroke-width: 2px; stroke: black; stroke-linejoin: round; marker-end: url('#sequenceflow-end-white-black-9qq1vjedz0grerzq6aoqidt8r');"/></g><polyline points="210,170 210,240 280,240 " class="djs-hit djs-hit-stroke" style="fill: none; stroke-opacity: 0; stroke: white; stroke-width: 15px;"/><rect x="204" y="164" width="82" height="82" class="djs-outline" style="fill: none;"/></g></g><g class="djs-group"><g class="djs-element djs-connection" data-element-id="Flow_1iqewox" style="display: block;"><g class="djs-visual"><path d="m  210,170L210,310 " style="fill: none; stroke-width: 2px; stroke: black; stroke-linejoin: round; marker-end: url('#sequenceflow-end-white-black-9qq1vjedz0grerzq6aoqidt8r');"/></g><polyline points="210,170 210,310 " class="djs-hit djs-hit-stroke" style="fill: none; stroke-opacity: 0; stroke: white; stroke-width: 15px;"/><rect x="204" y="164" width="12" height="152" class="djs-outline" style="fill: none;"/></g></g><g class="djs-group"><g class="djs-element djs-shape" data-element-id="Activity_1ki4568" style="display: block;" transform="matrix(1 0 0 1 160 90)"><g class="djs-visual"><rect x="0" y="0" width="100" height="80" rx="10" ry="10" style="stroke: black; stroke-width: 2px; fill: white; fill-opacity: 0.95;"/><text lineHeight="1.2" class="djs-label" style="font-family: Arial, sans-serif; font-size: 12px; font-weight: normal; fill: black;"><tspan x="12.640625" y="36.4">190 Countries </tspan><tspan x="25.1640625" y="50.8">from JHU</tspan></text></g><rect class="djs-hit djs-hit-all" x="0" y="0" width="100" height="80" style="fill: none; stroke-opacity: 0; stroke: white; stroke-width: 15px;"/><rect x="-6" y="-6" width="112" height="92" class="djs-outline" style="fill: none;"/></g></g><g class="djs-group"><g class="djs-element djs-shape" data-element-id="Activity_06w153i" style="display: block;" transform="matrix(1 0 0 1 160 310)"><g class="djs-visual"><rect x="0" y="0" width="100" height="80" rx="10" ry="10" style="stroke: black; stroke-width: 2px; fill: white; fill-opacity: 0.95;"/><text lineHeight="1.2" class="djs-label" style="font-family: Arial, sans-serif; font-size: 12px; font-weight: normal; fill: black;"><tspan x="12.640625" y="36.4">186 Countries </tspan><tspan x="14.8125" y="50.8">w/ ISO codes</tspan></text></g><rect class="djs-hit djs-hit-all" x="0" y="0" width="100" height="80" style="fill: none; stroke-opacity: 0; stroke: white; stroke-width: 15px;"/><rect x="-6" y="-6" width="112" height="92" class="djs-outline" style="fill: none;"/></g></g><g class="djs-group"><g class="djs-element djs-shape" data-element-id="Activity_1th8z82" style="display: block;" transform="matrix(1 0 0 1 160 537)"><g class="djs-visual"><rect x="0" y="0" width="100" height="80" rx="10" ry="10" style="stroke: black; stroke-width: 2px; fill: white; fill-opacity: 0.95;"/><text lineHeight="1.2" class="djs-label" style="font-family: Arial, sans-serif; font-size: 12px; font-weight: normal; fill: black;"><tspan x="12.640625" y="22">154 Countries </tspan><tspan x="29.4921875" y="36.4">w/ most </tspan><tspan x="26.1484375" y="50.8">available </tspan><tspan x="20.15625" y="65.19999999999999">information</tspan></text></g><rect class="djs-hit djs-hit-all" x="0" y="0" width="100" height="80" style="fill: none; stroke-opacity: 0; stroke: white; stroke-width: 15px;"/><rect x="-6" y="-6" width="112" height="92" class="djs-outline" style="fill: none;"/></g></g><g class="djs-group"><g class="djs-element djs-shape" data-element-id="Activity_160flq7" style="display: block;" transform="matrix(1 0 0 1 280 430)"><g class="djs-visual"><rect x="0" y="0" width="100" height="80" rx="10" ry="10" style="stroke: black; stroke-width: 2px; fill: white; fill-opacity: 0.95;"/><text lineHeight="1.2" class="djs-label" style="font-family: Arial, sans-serif; font-size: 12px; font-weight: normal; fill: black;"><tspan x="22.8203125" y="14.799999999999999">Discarded </tspan><tspan x="17.6484375" y="29.199999999999996">countries w/ </tspan><tspan x="10.6484375" y="43.599999999999994">missing values </tspan><tspan x="12.140625" y="57.99999999999999">in variables of </tspan><tspan x="29.984375" y="72.39999999999999">interest</tspan></text></g><rect class="djs-hit djs-hit-all" x="0" y="0" width="100" height="80" style="fill: none; stroke-opacity: 0; stroke: white; stroke-width: 15px;"/><rect x="-6" y="-6" width="112" height="92" class="djs-outline" style="fill: none;"/></g></g><g class="djs-group"><g class="djs-element djs-shape" data-element-id="Activity_0u6nbmb" style="display: block;" transform="matrix(1 0 0 1 160 970)"><g class="djs-visual"><rect x="0" y="0" width="100" height="80" rx="10" ry="10" style="stroke: black; stroke-width: 2px; fill: white; fill-opacity: 0.95;"/><text lineHeight="1.2" class="djs-label" style="font-family: Arial, sans-serif; font-size: 12px; font-weight: normal; fill: black;"><tspan x="19.4765625" y="36.4">150 eligible </tspan><tspan x="25.6484375" y="50.8">countries</tspan></text></g><rect class="djs-hit djs-hit-all" x="0" y="0" width="100" height="80" style="fill: none; stroke-opacity: 0; stroke: white; stroke-width: 15px;"/><rect x="-6" y="-6" width="112" height="92" class="djs-outline" style="fill: none;"/></g></g><g class="djs-group"><g class="djs-element djs-shape" data-element-id="Activity_1c591a3" style="display: block;" transform="matrix(1 0 0 1 280 790)"><g class="djs-visual"><rect x="0" y="0" width="100" height="80" rx="10" ry="10" style="stroke: black; stroke-width: 2px; fill: white; fill-opacity: 0.95;"/><text lineHeight="1.2" class="djs-label" style="font-family: Arial, sans-serif; font-size: 12px; font-weight: normal; fill: black;"><tspan x="7.6484375" y="29.200000000000003">Country w/ &lt; 90 </tspan><tspan x="11.4765625" y="43.6">days since the </tspan><tspan x="26.328125" y="58">first case</tspan></text></g><rect class="djs-hit djs-hit-all" x="0" y="0" width="100" height="80" style="fill: none; stroke-opacity: 0; stroke: white; stroke-width: 15px;"/><rect x="-6" y="-6" width="112" height="92" class="djs-outline" style="fill: none;"/></g></g><g class="djs-group"><g class="djs-element djs-shape" data-element-id="Activity_060w7b4" style="display: block;" transform="matrix(1 0 0 1 280 880)"><g class="djs-visual"><rect x="0" y="0" width="100" height="80" rx="10" ry="10" style="stroke: black; stroke-width: 2px; fill: white; fill-opacity: 0.95;"/><text lineHeight="1.2" class="djs-label" style="font-family: Arial, sans-serif; font-size: 12px; font-weight: normal; fill: black;"><tspan x="20.984375" y="29.200000000000003">Country w/ </tspan><tspan x="6.140625" y="43.6">anomalies in the</tspan><tspan x="38.15625" y="58">data</tspan></text></g><rect class="djs-hit djs-hit-all" x="0" y="0" width="100" height="80" style="fill: none; stroke-opacity: 0; stroke: white; stroke-width: 15px;"/><rect x="-6" y="-6" width="112" height="92" class="djs-outline" style="fill: none;"/></g></g><g class="djs-group"><g class="djs-element djs-shape" data-element-id="Activity_1n5o8po" style="display: block;" transform="matrix(1 0 0 1 280 200)"><g class="djs-visual"><rect x="0" y="0" width="100" height="80" rx="10" ry="10" style="stroke: black; stroke-width: 2px; fill: white; fill-opacity: 0.95;"/><text lineHeight="1.2" class="djs-label" style="font-family: Arial, sans-serif; font-size: 12px; font-weight: normal; fill: black;"><tspan x="13.921875" y="29.200000000000003">Available ISO </tspan><tspan x="20.3203125" y="43.6">codes from </tspan><tspan x="19.1640625" y="58">OWID Data</tspan></text></g><rect class="djs-hit djs-hit-all" x="0" y="0" width="100" height="80" style="fill: none; stroke-opacity: 0; stroke: white; stroke-width: 15px;"/><rect x="-6" y="-6" width="112" height="92" class="djs-outline" style="fill: none;"/></g></g><g class="djs-group"><g class="djs-element djs-shape" data-element-id="Flow_0alqjjr_label" style="display: block;" transform="matrix(1 0 0 1 227 453)"><g class="djs-visual"><text lineHeight="1.2" class="djs-label" style="font-family: Arial, sans-serif; font-size: 11px; font-weight: normal; fill: black;"><tspan x="0" y="9.899999999999999">n=32</tspan></text></g><rect class="djs-hit djs-hit-all" x="0" y="0" width="25" height="14" style="fill: none; stroke-opacity: 0; stroke: white; stroke-width: 15px;"/><rect x="-6" y="-6" width="37" height="26" class="djs-outline" style="fill: none;"/></g></g><g class="djs-group"><g class="djs-element djs-shape" data-element-id="Flow_1henji8_label" style="display: block;" transform="matrix(1 0 0 1 230 803)"><g class="djs-visual"><text lineHeight="1.2" class="djs-label" style="font-family: Arial, sans-serif; font-size: 11px; font-weight: normal; fill: black;"><tspan x="0" y="9.899999999999999">n=1</tspan></text></g><rect class="djs-hit djs-hit-all" x="0" y="0" width="19" height="14" style="fill: none; stroke-opacity: 0; stroke: white; stroke-width: 15px;"/><rect x="-6" y="-6" width="31" height="26" class="djs-outline" style="fill: none;"/></g></g><g class="djs-group"><g class="djs-element djs-shape" data-element-id="Flow_0sxjf9z_label" style="display: block;" transform="matrix(1 0 0 1 230 903)"><g class="djs-visual"><text lineHeight="1.2" class="djs-label" style="font-family: Arial, sans-serif; font-size: 11px; font-weight: normal; fill: black;"><tspan x="0" y="9.899999999999999">n=1</tspan></text></g><rect class="djs-hit djs-hit-all" x="0" y="0" width="19" height="14" style="fill: none; stroke-opacity: 0; stroke: white; stroke-width: 15px;"/><rect x="-6" y="-6" width="31" height="26" class="djs-outline" style="fill: none;"/></g></g><g class="djs-group"><g class="djs-element djs-shape" data-element-id="Flow_04xr85n_label" style="display: block;" transform="matrix(1 0 0 1 230 223)"><g class="djs-visual"><text lineHeight="1.2" class="djs-label" style="font-family: Arial, sans-serif; font-size: 11px; font-weight: normal; fill: black;"><tspan x="0" y="9.899999999999999">n=4</tspan></text></g><rect class="djs-hit djs-hit-all" x="0" y="0" width="20" height="14" style="fill: none; stroke-opacity: 0; stroke: white; stroke-width: 15px;"/><rect x="-6" y="-6" width="32" height="26" class="djs-outline" style="fill: none;"/></g></g><g class="djs-group"><g class="djs-element djs-connection" data-element-id="Association_06rdns1" style="display: block;"><g class="djs-visual"><polyline points="380,240 420,240 " style="fill: none; stroke: black; stroke-width: 2px; stroke-dasharray: 0.5, 5; stroke-linecap: round; stroke-linejoin: round;"/></g><polyline points="380,240 420,240 " class="djs-hit djs-hit-stroke" style="fill: none; stroke-opacity: 0; stroke: white; stroke-width: 15px;"/><rect x="374" y="234" width="52" height="12" class="djs-outline" style="fill: none;"/></g></g><g class="djs-group"><g class="djs-element djs-connection" data-element-id="Association_1w8hdvt" style="display: block;"><g class="djs-visual"><polyline points="380,470 420,470 " style="fill: none; stroke: black; stroke-width: 2px; stroke-dasharray: 0.5, 5; stroke-linecap: round; stroke-linejoin: round;"/></g><polyline points="380,470 420,470 " class="djs-hit djs-hit-stroke" style="fill: none; stroke-opacity: 0; stroke: white; stroke-width: 15px;"/><rect x="374" y="464" width="52" height="12" class="djs-outline" style="fill: none;"/></g></g><g class="djs-group"><g class="djs-element djs-connection" data-element-id="Association_04ig5oq" style="display: block;"><g class="djs-visual"><polyline points="380,830 420,830 " style="fill: none; stroke: black; stroke-width: 2px; stroke-dasharray: 0.5, 5; stroke-linecap: round; stroke-linejoin: round;"/></g><polyline points="380,830 420,830 " class="djs-hit djs-hit-stroke" style="fill: none; stroke-opacity: 0; stroke: white; stroke-width: 15px;"/><rect x="374" y="824" width="52" height="12" class="djs-outline" style="fill: none;"/></g></g><g class="djs-group"><g class="djs-element djs-connection" data-element-id="Association_0w91iol" style="display: block;"><g class="djs-visual"><polyline points="380,920 420,920 " style="fill: none; stroke: black; stroke-width: 2px; stroke-dasharray: 0.5, 5; stroke-linecap: round; stroke-linejoin: round;"/></g><polyline points="380,920 420,920 " class="djs-hit djs-hit-stroke" style="fill: none; stroke-opacity: 0; stroke: white; stroke-width: 15px;"/><rect x="374" y="914" width="52" height="12" class="djs-outline" style="fill: none;"/></g></g></svg>